<svg width="15" height="12" viewBox="0 0 15 12" fill="none" xmlns="http://www.w3.org/2000/svg">
<g clip-path="url(#clip0_562_3973)">
<path d="M0 0.5625C0 0.250781 0.278646 0 0.625 0H1.8099C2.38281 0 2.89062 0.3 3.1276 0.75H13.8307C14.5156 0.75 15.0156 1.33594 14.8359 1.93125L13.7682 5.50078C13.5469 6.23672 12.8047 6.75 11.9583 6.75H4.44531L4.58594 7.41797C4.64323 7.68281 4.90104 7.875 5.20052 7.875H12.7083C13.0547 7.875 13.3333 8.12578 13.3333 8.4375C13.3333 8.74922 13.0547 9 12.7083 9H5.20052C4.29948 9 3.52604 8.42344 3.35937 7.62891L2.01562 1.27734C1.9974 1.18828 1.91146 1.125 1.8099 1.125H0.625C0.278646 1.125 0 0.874219 0 0.5625ZM3.33333 10.875C3.33333 10.7273 3.36567 10.581 3.42848 10.4445C3.4913 10.308 3.58338 10.184 3.69945 10.0795C3.81552 9.97504 3.95332 9.89217 4.10498 9.83564C4.25664 9.7791 4.41918 9.75 4.58333 9.75C4.74749 9.75 4.91003 9.7791 5.06169 9.83564C5.21334 9.89217 5.35114 9.97504 5.46722 10.0795C5.58329 10.184 5.67536 10.308 5.73818 10.4445C5.801 10.581 5.83333 10.7273 5.83333 10.875C5.83333 11.0227 5.801 11.169 5.73818 11.3055C5.67536 11.442 5.58329 11.566 5.46722 11.6705C5.35114 11.775 5.21334 11.8578 5.06169 11.9144C4.91003 11.9709 4.74749 12 4.58333 12C4.41918 12 4.25664 11.9709 4.10498 11.9144C3.95332 11.8578 3.81552 11.775 3.69945 11.6705C3.58338 11.566 3.4913 11.442 3.42848 11.3055C3.36567 11.169 3.33333 11.0227 3.33333 10.875ZM12.0833 9.75C12.4149 9.75 12.7328 9.86853 12.9672 10.0795C13.2016 10.2905 13.3333 10.5766 13.3333 10.875C13.3333 11.1734 13.2016 11.4595 12.9672 11.6705C12.7328 11.8815 12.4149 12 12.0833 12C11.7518 12 11.4339 11.8815 11.1994 11.6705C10.965 11.4595 10.8333 11.1734 10.8333 10.875C10.8333 10.5766 10.965 10.2905 11.1994 10.0795C11.4339 9.86853 11.7518 9.75 12.0833 9.75Z" fill="#111111"/>
</g>
<defs>
<clipPath id="clip0_562_3973">
<rect width="15" height="12" fill="white"/>
</clipPath>
</defs>
</svg>
