<svg width="21" height="23" viewBox="0 0 21 23" fill="none" xmlns="http://www.w3.org/2000/svg">
<g clip-path="url(#clip0_562_4331)">
<path d="M10.5047 6.33403C7.52344 6.33403 5.11876 8.63853 5.11876 11.4956C5.11876 14.3526 7.52344 16.6571 10.5047 16.6571C13.4859 16.6571 15.8906 14.3526 15.8906 11.4956C15.8906 8.63853 13.4859 6.33403 10.5047 6.33403ZM10.5047 14.8512C8.57813 14.8512 7.00313 13.3463 7.00313 11.4956C7.00313 9.64478 8.57344 8.13989 10.5047 8.13989C12.4359 8.13989 14.0063 9.64478 14.0063 11.4956C14.0063 13.3463 12.4313 14.8512 10.5047 14.8512ZM17.3672 6.1229C17.3672 6.79224 16.8047 7.32681 16.1109 7.32681C15.4125 7.32681 14.8547 6.78774 14.8547 6.1229C14.8547 5.45806 15.4172 4.91899 16.1109 4.91899C16.8047 4.91899 17.3672 5.45806 17.3672 6.1229ZM20.9344 7.34478C20.8547 5.73208 20.4703 4.30356 19.2375 3.12661C18.0094 1.94966 16.5188 1.5813 14.8359 1.50044C13.1016 1.4061 7.90313 1.4061 6.16876 1.50044C4.49063 1.57681 3.00001 1.94517 1.76719 3.12212C0.534381 4.29907 0.154694 5.72759 0.0703186 7.34028C-0.0281189 9.00239 -0.0281189 13.9842 0.0703186 15.6463C0.150006 17.259 0.534381 18.6875 1.76719 19.8645C3.00001 21.0415 4.48594 21.4098 6.16876 21.4907C7.90313 21.585 13.1016 21.585 14.8359 21.4907C16.5188 21.4143 18.0094 21.0459 19.2375 19.8645C20.4656 18.6875 20.85 17.259 20.9344 15.6463C21.0328 13.9842 21.0328 9.00689 20.9344 7.34478ZM18.6938 17.4297C18.3281 18.3102 17.6203 18.9885 16.6969 19.3434C15.3141 19.869 12.0328 19.7477 10.5047 19.7477C8.97657 19.7477 5.69063 19.8645 4.31251 19.3434C3.39376 18.993 2.68594 18.3147 2.31563 17.4297C1.76719 16.1045 1.89376 12.96 1.89376 11.4956C1.89376 10.0311 1.77188 6.88208 2.31563 5.56138C2.68126 4.68091 3.38907 4.00259 4.31251 3.6477C5.69532 3.12212 8.97657 3.24341 10.5047 3.24341C12.0328 3.24341 15.3188 3.12661 16.6969 3.6477C17.6156 3.9981 18.3234 4.67642 18.6938 5.56138C19.2422 6.88657 19.1156 10.0311 19.1156 11.4956C19.1156 12.96 19.2422 16.109 18.6938 17.4297Z" fill="#111111"/>
</g>
<defs>
<clipPath id="clip0_562_4331">
<rect width="21" height="23" fill="white"/>
</clipPath>
</defs>
</svg>
