<svg width="21" height="23" viewBox="0 0 21 23" fill="none" xmlns="http://www.w3.org/2000/svg">
<g clip-path="url(#clip0_562_4327)">
<path d="M18.75 1.4375H2.25C1.65326 1.4375 1.08097 1.66468 0.65901 2.06905C0.237053 2.47343 0 3.02188 0 3.59375L0 19.4062C0 19.9781 0.237053 20.5266 0.65901 20.931C1.08097 21.3353 1.65326 21.5625 2.25 21.5625H8.68359V14.7204H5.73047V11.5H8.68359V9.04547C8.68359 6.25357 10.418 4.71141 13.0744 4.71141C14.3466 4.71141 15.6769 4.92883 15.6769 4.92883V7.66906H14.2111C12.7669 7.66906 12.3164 8.52797 12.3164 9.40889V11.5H15.5405L15.0248 14.7204H12.3164V21.5625H18.75C19.3467 21.5625 19.919 21.3353 20.341 20.931C20.7629 20.5266 21 19.9781 21 19.4062V3.59375C21 3.02188 20.7629 2.47343 20.341 2.06905C19.919 1.66468 19.3467 1.4375 18.75 1.4375Z" fill="#111111"/>
</g>
<defs>
<clipPath id="clip0_562_4327">
<rect width="21" height="23" fill="white"/>
</clipPath>
</defs>
</svg>
