<svg width="24" height="23" viewBox="0 0 24 23" fill="none" xmlns="http://www.w3.org/2000/svg">
<path d="M21.533 6.81559C21.5482 7.01989 21.5482 7.22424 21.5482 7.42855C21.5482 13.6601 16.599 20.8403 7.5533 20.8403C4.76648 20.8403 2.17767 20.0668 0 18.7242C0.395953 18.768 0.776625 18.7826 1.18781 18.7826C3.48727 18.7826 5.60405 18.0383 7.29441 16.7687C5.13197 16.7249 3.31978 15.3676 2.69541 13.4996C3 13.5434 3.30455 13.5726 3.62437 13.5726C4.06598 13.5726 4.50764 13.5142 4.91878 13.4121C2.66498 12.9742 0.974578 11.077 0.974578 8.78577V8.72742C1.62937 9.07768 2.39086 9.29658 3.19791 9.32573C1.87303 8.47927 1.00505 7.03449 1.00505 5.39997C1.00505 4.52435 1.24866 3.72169 1.67508 3.02117C4.09641 5.88157 7.73602 7.74956 11.8172 7.95391C11.7411 7.60365 11.6954 7.23884 11.6954 6.87399C11.6954 4.27625 13.8883 2.16016 16.6141 2.16016C18.0304 2.16016 19.3095 2.72932 20.208 3.64873C21.3197 3.44443 22.3857 3.05037 23.3299 2.51041C22.9643 3.60498 22.1877 4.52439 21.1674 5.10811C22.1573 5.006 23.1167 4.74325 23.9999 4.37844C23.33 5.31241 22.4924 6.14423 21.533 6.81559Z" fill="#111111"/>
</svg>
