<svg width="150" height="35" viewBox="0 0 150 35" fill="none" xmlns="http://www.w3.org/2000/svg">
<g clip-path="url(#clip0_509_6)">
<path d="M2.64376 34.9513L5.14432 30.7456L8.36358 30.9891C9.66452 30.2575 10.6277 29.2988 11.2532 28.1116C11.8773 26.9257 12.3218 25.2017 12.5852 22.9422L12.6379 22.4304C12.7082 21.8124 12.7433 21.1383 12.7433 20.4068C12.7433 16.3921 11.8422 12.5072 10.0387 8.75219C8.23524 4.99715 6.36691 3.11963 4.43239 3.11963C2.97204 3.11963 1.76701 4.14327 0.81731 6.19182C0.271536 6.02953 0 5.71245 0 5.24058C0 4.24938 0.71599 3.12837 2.15067 1.87627C3.584 0.625423 4.87279 0 6.01567 0C8.3906 0 10.6102 1.66655 12.6784 4.9984C14.7453 8.33024 16.1219 12.4598 16.8082 17.3845C18.2496 12.5247 20.449 8.41139 23.4048 5.04708C26.3606 1.68278 29.2516 0 32.0845 0C33.1922 0 34.2649 0.325819 35.3037 0.974962L32.3222 4.75372C31.5657 4.3143 30.7484 4.09584 29.869 4.09584C27.2482 4.09584 24.5693 6.07447 21.835 10.033C19.0994 13.9915 17.4323 18.2946 16.8352 22.9434L16.7825 23.4553C16.5191 25.4876 16.0125 26.9781 15.2655 27.9293C14.517 28.8806 13.0094 29.9492 10.7399 31.1351L18.9197 31.4759L17.404 34.9501H2.64376V34.9513Z" fill="#231815"/>
<path d="M73.4066 25.8932C73.4674 25.5112 72.9121 25.334 72.7041 25.6685C71.0276 28.3625 69.3281 31.6456 67.218 33.3072C64.6999 35.2908 61.9372 34.9513 60.3526 34.9513C58.6085 34.9513 57.0347 34.02 57.0347 31.8766C57.0347 31.0814 57.721 28.9367 57.9506 27.1179L59.411 19.2782C59.4285 19.1646 59.4731 18.694 59.542 17.8651L59.7001 16.2822C59.7528 15.8116 59.7798 15.3896 59.7798 15.0164C59.7798 14.0751 59.4893 13.6032 58.9098 13.6032C57.6467 13.6032 56.2903 14.8379 54.8395 17.3058C54.6949 17.5518 54.3045 17.5555 54.1721 17.3058C54.114 17.196 54.0856 17.0849 54.0856 16.9688C54.0856 15.9614 55.0583 14.6206 57.0023 12.9454C58.9476 11.2713 59.8973 10.6396 61.0416 10.6396C62.5019 10.6396 63.8258 11.3599 63.8258 13.2125C63.8258 13.6519 63.7907 14.1637 63.7204 14.748L63.4827 16.6255L63.2503 18.674L62.4276 25.6473C62.2871 26.8345 62.2169 28.0367 62.2169 29.2563C62.2169 30.3773 62.664 30.9391 63.5583 30.9391C65.5401 30.9391 67.78 29.4273 70.2778 26.4038C72.7757 23.3803 74.2536 20.3905 74.7089 17.4307L75.6518 12.9079C75.6748 12.7993 75.7504 12.7069 75.8585 12.6595L79.6141 10.9817C79.9153 10.8469 80.2436 11.114 80.1369 11.4086C79.4857 13.2275 78.201 15.5544 77.9781 16.8452C77.9767 16.8552 77.9754 16.8652 77.974 16.8764L77.2 25.5337C77.1108 26.1504 77.0406 26.671 76.9879 27.0929L76.8028 28.4324C76.6961 29.26 76.6434 29.8455 76.6434 30.1851C76.6434 30.8829 76.8541 31.2324 77.277 31.2324C78.7117 31.2324 81.5675 25.7572 83.1629 22.6313C83.2683 22.4241 83.5628 22.3604 83.7479 22.5127C83.9613 22.6875 84.0667 22.861 84.0667 23.0345C84.0667 23.6038 81.7877 29.1689 80.2558 30.8916C78.197 33.2323 76.2867 34.402 74.5265 34.402C73.2418 34.402 72.5987 33.6056 72.5987 32.0127C72.5987 31.5096 72.6609 30.8342 72.7838 29.9891L73.081 28.0392C73.2431 26.9831 73.3512 26.2677 73.4066 25.8932Z" fill="#231815"/>
<path d="M97.4004 20.7002C101.303 13.8568 105.145 10.4351 108.925 10.4351C109.91 10.4351 110.895 10.646 111.88 11.0692L108.162 14.8243C107.598 14.5321 106.878 14.3848 106 14.3848C104.173 14.3848 102.243 15.7543 100.213 18.4932C98.1825 21.232 96.9924 24.0808 96.6411 27.0394L96.1075 33.0152C95.9603 33.9765 95.1781 34.7504 94.1487 34.9514H90.6552L90.7403 34.5145L90.9254 32.9291L91.1361 31.3437L93.8636 18.6991L94.023 17.4308C94.146 16.4721 94.2081 15.6919 94.2081 15.0902C94.2081 14.099 93.9082 13.6034 93.3098 13.6034C91.9007 13.6034 86.0958 19.4731 84.7044 22.2532C84.264 21.9448 84.0532 21.6278 84.0708 21.3019C84.1235 20.3108 88.9976 14.7881 91.4225 12.8843C93.6299 11.1504 94.5796 10.6398 95.6901 10.6398C97.1869 10.6398 98.2028 11.3439 98.2028 13.164C98.2028 13.6034 98.1582 14.1963 98.0704 14.9441L97.8853 16.6506L97.6435 18.6991L97.4004 20.699V20.7002Z" fill="#231815"/>
<path d="M124.407 29.4536L128.899 26.9419C129.602 30.9404 132.2 32.9402 136.692 32.9402C138.877 32.9402 140.664 32.3922 142.055 31.2949C143.447 30.1976 144.142 28.7882 144.142 27.0642C144.142 24.7074 142.6 22.3667 139.517 20.0423L136.318 17.6529C133.744 15.703 132.026 14.1625 131.163 13.0328C130.299 11.903 129.867 10.631 129.867 9.21657C129.867 6.55134 131.02 4.348 133.324 2.60905C135.629 0.8701 138.539 0 142.058 0C144.854 0 147.502 0.617933 150 1.85255L148.469 5.09577L147.783 6.53387C147.395 7.379 146.939 7.80219 146.411 7.80219C146.182 7.80219 145.945 7.72105 145.699 7.55751C145.997 6.70863 146.147 6.03203 146.147 5.52645C146.147 4.48158 145.527 3.60898 144.287 2.90741C143.047 2.20584 141.512 1.8538 139.683 1.8538C135.532 1.8538 133.457 3.43921 133.457 6.61126C133.457 7.74976 133.919 8.84456 134.841 9.89318C135.764 10.9418 137.686 12.5646 140.607 14.7605L143.167 16.7129C146.421 19.1534 148.048 21.7151 148.048 24.399C148.048 27.3601 146.697 29.8243 143.998 31.793C141.297 33.7616 137.924 34.7453 133.879 34.7453C128.954 34.7453 125.797 32.9814 124.407 29.4548V29.4536Z" fill="#231815"/>
<path d="M32.9234 35C28.0925 35 27.0523 32.1513 27.0523 27.224C27.0523 23.2555 27.5076 19.2708 31.2861 15.5919C35.0646 11.913 44.5319 10.2227 48.5644 10.6409C53.4845 11.1515 47.993 10.6659 47.993 15.5919C47.993 19.5766 48.5523 25.8234 44.7737 29.4948C40.9952 33.1649 37.0451 35 32.9221 35H32.9234ZM36.8195 32.2224C39.2876 32.2224 41.3546 31.1651 43.0189 29.0479C44.6819 26.9319 45.5154 24.2954 45.5154 21.1371C45.5154 15.9789 43.4323 13.3998 39.2674 13.3998C36.8195 13.3998 34.7634 14.4621 33.1004 16.5868C31.4361 18.7115 30.6052 21.3443 30.6052 24.4851C30.6052 29.6433 32.6776 32.2224 36.8208 32.2224H36.8195Z" fill="#231815"/>
<path d="M116.436 10.7943C114.3 8.95298 117.505 -1.18987 119.335 3.88592C121.052 0.175825 124.142 0.492906 122.584 5.05937C121.082 9.4623 116.436 10.7943 116.436 10.7943Z" fill="#050000"/>
<path d="M41.364 20.9057C42.1541 20.9057 42.7946 20.3138 42.7946 19.5837C42.7946 18.8536 42.1541 18.2617 41.364 18.2617C40.5739 18.2617 39.9333 18.8536 39.9333 19.5837C39.9333 20.3138 40.5739 20.9057 41.364 20.9057Z" fill="#231815"/>
<path d="M41.364 20.0009C41.5811 20.0009 41.7571 19.8142 41.7571 19.5839C41.7571 19.3537 41.5811 19.167 41.364 19.167C41.1469 19.167 40.9709 19.3537 40.9709 19.5839C40.9709 19.8142 41.1469 20.0009 41.364 20.0009Z" fill="#FDFDFE"/>
<path d="M66.4912 20.9057C67.2813 20.9057 67.9218 20.3138 67.9218 19.5837C67.9218 18.8536 67.2813 18.2617 66.4912 18.2617C65.7011 18.2617 65.0605 18.8536 65.0605 19.5837C65.0605 20.3138 65.7011 20.9057 66.4912 20.9057Z" fill="#231815"/>
<path d="M66.4912 20.0183C66.756 20.0183 66.9708 19.8238 66.9708 19.5838C66.9708 19.3439 66.756 19.1494 66.4912 19.1494C66.2263 19.1494 66.0116 19.3439 66.0116 19.5838C66.0116 19.8238 66.2263 20.0183 66.4912 20.0183Z" fill="#FAFAFA"/>
</g>
<defs>
<clipPath id="clip0_509_6">
<rect width="150" height="35" fill="white"/>
</clipPath>
</defs>
</svg>
